<svg xmlns="http://www.w3.org/2000/svg" width="9" height="12" viewBox="0 0 9 12">
  <path id="paper" d="M.346,12A.332.332,0,0,1,0,11.684V.316A.332.332,0,0,1,.346,0H5.4a.365.365,0,0,1,.243.091L8.9,3.014a.3.3,0,0,1,.1.224v8.445A.333.333,0,0,1,8.654,12Zm.346-.632H8.308V3.5H5.019V.631H.692ZM4.5,9.5H4.48a.418.418,0,0,1-.27-.111L2.617,7.967a.331.331,0,0,1,0-.505.435.435,0,0,1,.566,0L4.1,8.28V4.857a.4.4,0,0,1,.8,0V8.28l.917-.819a.435.435,0,0,1,.566,0,.331.331,0,0,1,0,.505L4.79,9.388A.419.419,0,0,1,4.52,9.5H4.5Z" fill="#001322"/>
</svg>
