<svg id="_" data-name="&gt;" xmlns="http://www.w3.org/2000/svg" width="36" height="36" viewBox="0 0 36 36">
  <path id="_2" data-name="&gt;" d="M32,36H4a4,4,0,0,1-4-4V4A4,4,0,0,1,4,0H32a4,4,0,0,1,4,4V32A4,4,0,0,1,32,36ZM4,2A2,2,0,0,0,2,4V32a2,2,0,0,0,2,2H32a2,2,0,0,0,2-2V4a2,2,0,0,0-2-2Z" fill="#001322"/>
  <path id="Path_228" data-name="Path 228" d="M316.408,2841.129a1.064,1.064,0,0,1-.707-.26.821.821,0,0,1,0-1.257l7.293-6.483-7.293-6.483a.821.821,0,0,1,0-1.257,1.09,1.09,0,0,1,1.414,0l8,7.111a.821.821,0,0,1,0,1.257l-8,7.111A1.064,1.064,0,0,1,316.408,2841.129Z" transform="translate(-302.408 -2815.129)" fill="#001322"/>
</svg>
